<svg width="178" height="175" viewBox="0 0 178 175" fill="none" xmlns="http://www.w3.org/2000/svg">
<path d="M77.5878 174.479C71.1915 160.96 64.8732 146.897 58.6329 132.29C52.3926 117.683 46.4643 103.232 40.8481 88.936C35.2318 74.6399 30.0055 60.9654 25.1693 47.9125C20.4891 34.8596 16.4329 23.2052 13.0007 12.9493H53.2506C56.3708 22.2729 59.725 32.3733 63.3131 43.2508C67.0573 53.9728 70.8015 64.6948 74.5457 75.4169C78.4458 86.1389 82.19 96.3948 85.7782 106.184C89.3664 115.974 92.7205 124.443 95.8407 131.591C98.8048 124.443 102.081 115.974 105.669 106.184C109.413 96.3948 113.157 86.1389 116.902 75.4169C120.802 64.6948 124.546 53.9728 128.134 43.2508C131.878 32.3733 135.311 22.2729 138.431 12.9493H177.277C173.688 23.2052 169.554 34.8596 164.874 47.9125C160.194 60.9654 155.045 74.6399 149.429 88.936C143.813 103.232 137.885 117.683 131.644 132.29C125.404 146.897 119.086 160.96 112.689 174.479H77.5878Z" fill="#CF2323" fill-opacity="0.8"/>
<path d="M64.5872 161.53C58.1909 148.011 51.8726 133.948 45.6323 119.341C39.392 104.734 33.4637 90.2827 27.8474 75.9867C22.2312 61.6906 17.0049 48.0161 12.1687 34.9632C7.48848 21.9103 3.43229 10.2559 0.00012207 3.05176e-05H40.25C43.3702 9.32354 46.7243 19.424 50.3125 30.3014C54.0567 41.0235 57.8009 51.7455 61.5451 62.4676C65.4452 73.1896 69.1894 83.4455 72.7776 93.2352C76.3658 103.025 79.7199 111.494 82.8401 118.642C85.8042 111.494 89.0804 103.025 92.6685 93.2352C96.4127 83.4455 100.157 73.1896 103.901 62.4676C107.801 51.7455 111.545 41.0235 115.134 30.3014C118.878 19.424 122.31 9.32354 125.43 3.05176e-05H164.276C160.688 10.2559 156.554 21.9103 151.873 34.9632C147.193 48.0161 142.045 61.6906 136.429 75.9867C130.812 90.2827 124.884 104.734 118.644 119.341C112.403 133.948 106.085 148.011 99.6889 161.53H64.5872Z" fill="#0D7CFF" fill-opacity="0.51"/>
<path d="M71.0875 168.005C64.6912 154.485 58.3729 140.423 52.1326 125.816C45.8923 111.209 39.964 96.7574 34.3478 82.4613C28.7315 68.1653 23.5052 54.4908 18.669 41.4379C13.9888 28.385 9.93259 16.7306 6.50043 6.4747H46.7503C49.8705 15.7982 53.2246 25.8987 56.8128 36.7761C60.557 47.4982 64.3012 58.2202 68.0454 68.9422C71.9455 79.6643 75.6897 89.9201 79.2779 99.7098C82.8661 109.5 86.2202 117.968 89.3404 125.116C92.3045 117.968 95.5807 109.5 99.1688 99.7098C102.913 89.9201 106.657 79.6643 110.401 68.9422C114.302 58.2202 118.046 47.4982 121.634 36.7761C125.378 25.8987 128.81 15.7982 131.93 6.4747H170.776C167.188 16.7306 163.054 28.385 158.374 41.4379C153.693 54.4908 148.545 68.1653 142.929 82.4613C137.313 96.7574 131.384 111.209 125.144 125.816C118.904 140.423 112.585 154.485 106.189 168.005H71.0875Z" fill="white" fill-opacity="0.74"/>
</svg>
