<svg width="44" height="44" viewBox="0 0 44 44" fill="none" xmlns="http://www.w3.org/2000/svg">
<path d="M2.75 2.75V41.25H41.25V2.75H2.75ZM23.7023 32.7759C23.7023 36.5228 21.5023 38.2332 18.2971 38.2332C15.4014 38.2332 13.7253 36.7386 12.8659 34.925L15.8139 33.1458C16.3818 34.1509 16.8974 35.002 18.1431 35.002C19.3284 35.002 20.0846 34.5372 20.0846 32.725V20.427H23.7023V32.7759ZM32.2603 38.2332C28.8997 38.2332 26.7259 36.6355 25.6685 34.5373L28.6165 32.8364C29.3906 34.1 30.404 35.0364 32.1833 35.0364C33.6779 35.0364 34.6418 34.2884 34.6418 33.2489C34.6418 32.0114 33.6614 31.5728 32.0031 30.8426L31.1011 30.4562C28.4886 29.348 26.7616 27.9469 26.7616 24.9989C26.7616 22.2832 28.8324 20.2208 32.0554 20.2208C34.3585 20.2208 36.0085 21.0196 37.1951 23.1165L34.3764 24.9219C33.7576 23.8136 33.0866 23.375 32.0471 23.375C30.9911 23.375 30.3201 24.046 30.3201 24.9219C30.3201 26.0054 30.9911 26.4426 32.5462 27.1219L33.4482 27.5083C36.5255 28.8228 38.2525 30.173 38.2525 33.1966C38.2525 36.4458 35.6909 38.2319 32.2616 38.2319L32.2603 38.2332Z" fill="#ECECEC"/>
</svg>
