<svg width="41" height="41" viewBox="0 0 41 41" fill="none" xmlns="http://www.w3.org/2000/svg">
<g clip-path="url(#clip0_9_16)">
<path d="M29.3713 16.3231C27.2119 6.79063 22.1074 3.65754 21.5591 2.46C21.0807 1.78692 20.6536 0.83025 20.3034 0C20.2419 0.845625 20.2095 1.17021 19.41 2.02267C18.1749 2.98958 11.8284 8.31275 11.3125 19.1402C10.8307 29.2398 18.6071 35.2583 19.6628 36.0253L19.7824 36.1108C20.0022 37.7367 20.1902 39.3667 20.3461 41H21.1679C21.3625 39.2372 21.6533 37.4864 22.0391 35.7554C22.7515 35.2498 23.0709 34.9645 23.4912 34.5715C25.4813 32.7305 27.0629 30.4922 28.1338 28.0015C29.2046 25.5108 29.7409 22.8231 29.7078 20.1122C29.7249 18.7216 29.5319 17.273 29.3713 16.3231ZM20.2556 30.3229C20.2556 30.3229 20.2556 16.1591 20.7254 16.1608C21.0893 16.1608 21.5625 34.4315 21.5625 34.4315C20.9116 34.3546 20.2556 31.4248 20.2556 30.3229Z" fill="#ECECEC"/>
</g>
<defs>
<clipPath id="clip0_9_16">
<rect width="41" height="41" fill="white"/>
</clipPath>
</defs>
</svg>
