<svg width="39" height="39" viewBox="0 0 39 39" fill="none" xmlns="http://www.w3.org/2000/svg">
<path d="M39 18.9946C39 16.4109 35.7646 13.962 30.8035 12.4443C31.9491 7.38888 31.4405 3.36537 29.198 2.07675C28.6546 1.77242 28.0396 1.61923 27.417 1.63312V3.40438C27.7826 3.40438 28.0767 3.4775 28.3237 3.61238C29.4044 4.23312 29.874 6.59263 29.5084 9.62975C29.4206 10.3773 29.2776 11.1637 29.1021 11.9665C27.4408 11.5662 25.7546 11.2768 24.0549 11.1004C23.0423 9.70335 21.9375 8.37548 20.748 7.12563C23.3399 4.71738 25.7725 3.39788 27.4268 3.39788V1.625C25.2395 1.625 22.3779 3.18338 19.4837 5.88575C16.5912 3.20125 13.728 1.6575 11.5424 1.6575V3.42875C13.1885 3.42875 15.6293 4.74175 18.2211 7.13375C17.108 8.30375 15.9949 9.62975 14.937 11.1004C13.2337 11.2749 11.5446 11.567 9.88163 11.9746C9.698 11.18 9.56313 10.4097 9.46725 9.67038C9.0935 6.63163 9.555 4.27213 10.6291 3.64488C10.8664 3.50188 11.1768 3.43687 11.5424 3.43687V1.66562C10.8761 1.66562 10.27 1.80862 9.74675 2.10925C7.51238 3.39787 7.01188 7.41163 8.164 12.4524C3.21913 13.9799 0 16.419 0 18.9946C0 21.5784 3.23538 24.0273 8.1965 25.5434C7.05088 30.6004 7.5595 34.6239 9.802 35.9109C10.3188 36.2131 10.9233 36.3561 11.5895 36.3561C13.7767 36.3561 16.6384 34.7977 19.5325 32.0954C22.425 34.7815 25.2866 36.3236 27.4739 36.3236C28.1013 36.3369 28.721 36.1832 29.2695 35.8784C31.5039 34.5914 32.0044 30.5776 30.8522 25.5369C35.7809 24.0191 39 21.5702 39 18.9946ZM28.6487 13.6922C28.34 14.7548 27.9821 15.8024 27.5762 16.8317C26.9119 15.5395 26.1824 14.2817 25.3906 13.0634C26.52 13.2307 27.6088 13.4371 28.6504 13.6922H28.6487ZM25.0088 22.1585C24.3896 23.231 23.7526 24.2499 23.0929 25.1956C20.7078 25.4058 18.3089 25.4086 15.9234 25.2038C14.555 23.2492 13.3584 21.1799 12.3468 19.019C13.3568 16.853 14.5484 14.7765 15.9087 12.8115C18.2933 12.6009 20.6916 12.5976 23.0766 12.8017C23.7364 13.7475 24.3815 14.7583 25.0006 15.8243C25.6051 16.8643 26.1544 17.9205 26.6549 18.9865C26.1488 20.0654 25.5997 21.1236 25.0088 22.1585ZM27.5762 21.125C28.0052 22.1894 28.3725 23.2554 28.6731 24.2889C27.6331 24.544 26.5346 24.7585 25.3988 24.9242C26.1873 23.6948 26.914 22.4268 27.5762 21.125ZM19.5163 29.6075C18.7769 28.8437 18.0375 27.9939 17.3062 27.0627C18.0212 27.0952 18.7525 27.1196 19.4919 27.1196C20.2394 27.1196 20.9787 27.1034 21.7019 27.0627C20.9869 27.9939 20.2475 28.8437 19.5163 29.6075ZM13.6012 24.9242C12.5056 24.7655 11.4178 24.5562 10.3415 24.297C10.6356 23.2716 11.0013 22.2138 11.414 21.1575C11.7406 21.7913 12.0835 22.4283 12.4572 23.0653C12.831 23.7006 13.2112 24.3214 13.6012 24.9242ZM19.4756 8.38175C20.215 9.1455 20.9544 9.99537 21.6856 10.9265C20.9706 10.894 20.2394 10.8696 19.5 10.8696C18.7525 10.8696 18.0131 10.8859 17.29 10.9265C18.005 9.99537 18.7444 9.1455 19.4756 8.38175ZM13.5931 13.065C12.8048 14.2918 12.0781 15.557 11.4156 16.8561C10.9983 15.8201 10.6323 14.7642 10.3187 13.6922C11.3587 13.4452 12.4572 13.2308 13.5931 13.065ZM6.39925 23.0165C3.58475 21.8172 1.76475 20.2426 1.76475 18.9946C1.76475 17.7466 3.58475 16.1639 6.39925 14.9727C7.08175 14.6786 7.82925 14.4154 8.60113 14.17C9.0545 15.7268 9.65088 17.3485 10.3886 19.0109C9.69209 20.5744 9.10302 22.1837 8.6255 23.8274C7.87061 23.5936 7.12763 23.323 6.39925 23.0165ZM10.6763 34.3752C9.59562 33.7577 9.126 31.395 9.49162 28.3595C9.57938 27.612 9.72237 26.8239 9.89787 26.0211C11.4546 26.403 13.156 26.6971 14.9451 26.8889C15.9578 28.2859 17.0625 29.6137 18.252 30.8636C15.6601 33.2719 13.2275 34.5914 11.5733 34.5914C11.2612 34.5948 10.953 34.5211 10.6763 34.3769V34.3752ZM29.5327 28.3189C29.9065 31.356 29.445 33.7171 28.3709 34.3444C28.1336 34.4874 27.8232 34.5507 27.4576 34.5507C25.8115 34.5507 23.3708 33.2394 20.7789 30.8458C21.892 29.679 23.0051 28.3514 24.063 26.8807C25.7663 26.7063 27.4554 26.4142 29.1184 26.0065C29.302 26.8092 29.4434 27.5795 29.5327 28.3189ZM32.5926 23.0165C31.9101 23.3106 31.1626 23.5739 30.3907 23.8193C29.9048 22.1671 29.3076 20.5498 28.6032 18.9784C29.3345 17.3258 29.9211 15.7121 30.3664 14.1619C31.1545 14.4073 31.9004 14.6786 32.6007 14.9727C35.4152 16.172 37.2352 17.7466 37.2352 18.9946C37.2271 20.2426 35.4071 21.8254 32.5926 23.0165Z" fill="#ECECEC"/>
<path d="M19.4919 22.6281C20.4556 22.6281 21.3798 22.2453 22.0612 21.5639C22.7426 20.8825 23.1254 19.9583 23.1254 18.9946C23.1254 18.031 22.7426 17.1068 22.0612 16.4254C21.3798 15.7439 20.4556 15.3611 19.4919 15.3611C18.5282 15.3611 17.604 15.7439 16.9226 16.4254C16.2412 17.1068 15.8584 18.031 15.8584 18.9946C15.8584 19.9583 16.2412 20.8825 16.9226 21.5639C17.604 22.2453 18.5282 22.6281 19.4919 22.6281Z" fill="#ECECEC"/>
</svg>
