<svg width="44" height="44" viewBox="0 0 44 44" fill="none" xmlns="http://www.w3.org/2000/svg">
<path d="M2.75 22V41.25H41.25V2.75H2.75V22ZM33.7738 20.4648C34.6967 20.6821 35.5355 21.1657 36.186 21.8556C36.5374 22.231 37.0631 22.9204 37.1076 23.09C37.1197 23.1406 35.4473 24.2619 34.4319 24.8887C34.3946 24.914 34.2442 24.7576 34.0806 24.5121C33.5861 23.7915 33.0651 23.4786 32.2699 23.4221C31.104 23.3463 30.3521 23.9551 30.3581 24.9765C30.352 25.2265 30.4078 25.474 30.5205 25.6972C30.778 26.2302 31.2605 26.549 32.7511 27.1951C35.5087 28.379 36.6865 29.1622 37.4193 30.2715C38.2398 31.5119 38.4215 33.4923 37.8704 34.9709C37.2568 36.5686 35.7397 37.6587 33.609 38.016C32.9508 38.1351 31.3844 38.1159 30.6757 37.9847C29.1285 37.7092 27.6619 36.944 26.7596 35.9418C26.4022 35.5532 25.7128 34.5317 25.7574 34.4632C25.7766 34.4379 25.933 34.338 26.1087 34.237L27.538 33.4092L28.6473 32.7644L28.8795 33.1085C29.2055 33.6029 29.913 34.2803 30.3401 34.5053C31.5685 35.1574 33.254 35.0635 34.0878 34.3176C34.4259 34.0361 34.6148 33.6029 34.5895 33.165C34.5895 32.7198 34.533 32.5201 34.3008 32.1869C34 31.761 33.3924 31.3976 31.6563 30.6457C29.6699 29.7866 28.8109 29.2609 28.0349 28.4151C27.5464 27.8583 27.1851 27.2018 26.9761 26.4913C26.8317 25.9462 26.7945 24.5795 26.9075 24.0345C27.3154 22.1107 28.7688 20.7764 30.855 20.3818C31.5324 20.2507 33.1109 20.3 33.775 20.4636L33.7738 20.4648ZM24.7383 22.0758L24.7503 23.6483H19.7369V37.8921H16.1901V23.6483H11.1839V22.1071C11.1839 21.248 11.2032 20.5346 11.2272 20.5153C11.2465 20.4901 14.2916 20.478 17.9888 20.4841L24.7191 20.5033L24.7383 22.0758Z" fill="#ECECEC"/>
</svg>
