<svg width="137" height="175" viewBox="0 0 137 175" fill="none" xmlns="http://www.w3.org/2000/svg">
<path d="M61.5391 13.3332C85.5608 13.3332 104.003 17.5613 116.866 26.0175C129.73 34.3199 136.161 48.0036 136.161 67.0684C136.161 86.287 129.652 100.201 116.634 108.811C103.616 117.267 85.0184 121.495 60.8417 121.495H49.4507V175H13.1857V17.4844C21.0896 15.947 29.4585 14.8707 38.2923 14.2557C47.1261 13.6407 54.875 13.3332 61.5391 13.3332ZM63.8638 44.0061C61.2291 44.0061 58.5945 44.083 55.9598 44.2367C53.4802 44.3905 51.3105 44.5442 49.4507 44.698V90.8226H60.8417C73.395 90.8226 82.8487 89.1313 89.2028 85.7489C95.5569 82.3664 98.734 76.0627 98.734 66.8378C98.734 62.3791 97.8816 58.6891 96.1768 55.7679C94.627 52.8467 92.3024 50.5404 89.2028 48.8492C86.2582 47.0042 82.6162 45.7742 78.2768 45.1592C73.9374 44.3905 69.133 44.0061 63.8638 44.0061Z" fill="#CF2323" fill-opacity="0.8"/>
<path d="M48.6242 0.520844C72.6459 0.520844 91.0883 4.74893 103.952 13.2051C116.815 21.5075 123.246 35.1912 123.246 54.256C123.246 73.4746 116.737 87.3889 103.719 95.9988C90.7009 104.455 72.1034 108.683 47.9268 108.683H36.5358V162.188H0.270813V4.67206C8.17473 3.13457 16.5436 2.05833 25.3774 1.44334C34.2111 0.828342 41.9601 0.520844 48.6242 0.520844ZM50.9488 31.1937C48.3142 31.1937 45.6796 31.2706 43.0449 31.4243C40.5653 31.5781 38.3956 31.7318 36.5358 31.8856V78.0102H47.9268C60.48 78.0102 69.9337 76.319 76.2879 72.9365C82.642 69.554 85.8191 63.2503 85.8191 54.0254C85.8191 49.5667 84.9667 45.8767 83.2619 42.9555C81.7121 40.0343 79.3874 37.728 76.2879 36.0368C73.3433 34.1918 69.7013 32.9618 65.3619 32.3468C61.0225 31.5781 56.2181 31.1937 50.9488 31.1937Z" fill="#0D7CFF" fill-opacity="0.51"/>
<path d="M55.0816 6.92704C79.1033 6.92704 97.5458 11.1551 110.409 19.6113C123.272 27.9137 129.704 41.5974 129.704 60.6622C129.704 79.8808 123.195 93.7951 110.177 102.405C97.1583 110.861 78.5609 115.089 54.3842 115.089H42.9933V168.594H6.72824V11.0783C14.6322 9.54077 23.001 8.46453 31.8348 7.84953C40.6686 7.23453 48.4175 6.92704 55.0816 6.92704ZM57.4063 37.5999C54.7716 37.5999 52.137 37.6768 49.5024 37.8305C47.0227 37.9843 44.853 38.138 42.9933 38.2918V84.4164H54.3842C66.9375 84.4164 76.3912 82.7252 82.7453 79.3427C89.0994 75.9602 92.2765 69.6565 92.2765 60.4316C92.2765 55.9729 91.4241 52.2829 89.7193 49.3617C88.1695 46.4405 85.8449 44.1342 82.7453 42.443C79.8007 40.598 76.1587 39.368 71.8193 38.753C67.4799 37.9843 62.6756 37.5999 57.4063 37.5999Z" fill="white" fill-opacity="0.74"/>
</svg>
